# xmcd
#
# Track frame offsets:
#	150
#	16239
#	45702
#	62373
#	91718
#	115245
#	134633
#
# Disc length: 1987 seconds
#
# Revision: 2
# Processed by: cddbd v1.5.2PL0 Copyright (c) Steve Scherf et al.
# Submitted via: EZCDAudioConverter 2.1.7.1
#
DISCID=5207c107
DTITLE=INXS - Kick 3/3
DYEAR=1900
DGENRE=
TTITLE0=Never Tear Us Apart [Soul Version]
TTITLE1=New Sensation [Nick 12'' Mix]
TTITLE2=New Sensation [Nick 7'']
TTITLE3=Devil Inside [Extended Remix]
TTITLE4=Devil Inside [7'']
TTITLE5=Different World [7'']
TTITLE6=Calling All Nations [Kids On Bridges Remix]
EXTD=
EXTT0=
EXTT1=
EXTT2=
EXTT3=
EXTT4=
EXTT5=
EXTT6=
PLAYORDER=
